<?xml version="1.0" encoding="utf-8"?><!-- Uploaded to: SVG Repo, www.svgrepo.com, Generator: SVG Repo Mixer Tools -->
<svg fill="#000000" width="800px" height="800px" viewBox="0 0 24 24" id="bedroom-6" data-name="Flat Line" xmlns="http://www.w3.org/2000/svg" class="icon flat-line"><path id="secondary" d="M5,13H19a2,2,0,0,1,2,2v2a0,0,0,0,1,0,0H3a0,0,0,0,1,0,0V15A2,2,0,0,1,5,13Z" style="fill: rgb(44, 169, 188); stroke-width: 2;"></path><path id="primary" d="M5,17v2m14-2v2M15,7h0a2,2,0,0,0-2-2H11A2,2,0,0,0,9,7H5v6H19V7Zm4,0V5M5,7V5M21,15a2,2,0,0,0-2-2H5a2,2,0,0,0-2,2v2H21Z" style="fill: none; stroke: rgb(0, 0, 0); stroke-linecap: round; stroke-linejoin: round; stroke-width: 2;"></path></svg>